<svg xmlns="http://www.w3.org/2000/svg" viewBox="0 0 1600 900" role="img" aria-labelledby="title desc">
  <title id="title">Portada del área de Prompts EMPC</title>
  <desc id="desc">Ilustración geométrica coral con bloques de texto y un símbolo de prompt.</desc>
  <defs>
    <linearGradient id="bg" x1="0" y1="0" x2="1" y2="1">
      <stop offset="0%" stop-color="#1c2034"/>
      <stop offset="100%" stop-color="#0f1624"/>
    </linearGradient>
    <linearGradient id="accent" x1="0" y1="0" x2="1" y2="1">
      <stop offset="0%" stop-color="#f0a0a0"/>
      <stop offset="100%" stop-color="#e29595"/>
    </linearGradient>
  </defs>
  <rect width="1600" height="900" fill="url(#bg)"/>
  <circle cx="300" cy="210" r="180" fill="#e29595" fill-opacity="0.10"/>
  <circle cx="1260" cy="160" r="230" fill="#f0a0a0" fill-opacity="0.07"/>
  <rect x="180" y="170" width="1240" height="560" rx="40" fill="#111827" stroke="#efb0b0" stroke-opacity="0.2"/>
  <rect x="250" y="245" width="470" height="24" rx="12" fill="#f1f5f9" fill-opacity="0.85"/>
  <rect x="250" y="300" width="620" height="18" rx="9" fill="#cbd5e1" fill-opacity="0.65"/>
  <rect x="250" y="334" width="540" height="18" rx="9" fill="#cbd5e1" fill-opacity="0.45"/>
  <rect x="250" y="408" width="390" height="126" rx="28" fill="url(#accent)" fill-opacity="0.16" stroke="#f0a0a0" stroke-opacity="0.28"/>
  <text x="300" y="470" fill="#ffd7d7" font-size="58" font-family="Inter, ui-sans-serif, system-ui, -apple-system, BlinkMacSystemFont, sans-serif" font-weight="700">PROMPT</text>
  <text x="300" y="515" fill="#f8fafc" font-size="26" font-family="Inter, ui-sans-serif, system-ui, -apple-system, BlinkMacSystemFont, sans-serif">EMPC</text>
  <rect x="745" y="245" width="520" height="390" rx="32" fill="#0b1220" stroke="#ffffff" stroke-opacity="0.08"/>
  <rect x="790" y="300" width="190" height="22" rx="11" fill="#f0a0a0" fill-opacity="0.8"/>
  <rect x="790" y="345" width="360" height="14" rx="7" fill="#94a3b8" fill-opacity="0.55"/>
  <rect x="790" y="376" width="320" height="14" rx="7" fill="#94a3b8" fill-opacity="0.42"/>
  <rect x="790" y="430" width="420" height="14" rx="7" fill="#94a3b8" fill-opacity="0.6"/>
  <rect x="790" y="460" width="310" height="14" rx="7" fill="#94a3b8" fill-opacity="0.45"/>
  <rect x="790" y="520" width="250" height="56" rx="18" fill="#f0a0a0" fill-opacity="0.18" stroke="#f0a0a0" stroke-opacity="0.28"/>
  <text x="828" y="556" fill="#ffd7d7" font-size="24" font-family="Inter, ui-sans-serif, system-ui, -apple-system, BlinkMacSystemFont, sans-serif" font-weight="600">Ficha canónica</text>
</svg>
